# xmcd
#
# Track frame offsets:
#	150
#	15471
#	29178
#	43092
#	56667
#	70764
#	85100
#	98490
#	112539
#	127113
#	141376
#	154699
#	168122
#	181947
#	195227
#	209892
#	220111
#	234577
#	261006
#	274055
#	287155
#	301829
#	317637
#	331649
#	345442
#
# Disc length: 4798 seconds
#
# Revision: 0
# Processed by: cddbd v1.5.2PL0 Copyright (c) Steve Scherf et al.
# Submitted via: audiograbber 1.83.01
#
DISCID=5d12bc19
DTITLE=Billie Holiday - 2009 - 101 Hits CD3
DYEAR=2009
DGENRE=Blues
TTITLE0=Lover come back to me
TTITLE1=All of me
TTITLE2=He's funny that way
TTITLE3=On the sunny side of the street
TTITLE4=Good morning heartache
TTITLE5=Baby I don't cry over you
TTITLE6=Now they call it swing
TTITLE7=No good man
TTITLE8=Girls were made to take care of boys
TTITLE9=I'm in a low down groove
TTITLE10=Under a blue jungle moon
TTITLE11=I'll get by
TTITLE12=One never knows - does one
TTITLE13=The moon looks down and laughs
TTITLE14=Keeps on rainin'
TTITLE15=Romance in the dark
TTITLE16=Guilty
TTITLE17=I gotta right to sing the blues
TTITLE18=A sunbonnet blue
TTITLE19=Laughing at life
TTITLE20=Our love is different
TTITLE21=I cover the waterfront
TTITLE22=The man I love
TTITLE23=They can't take it away
TTITLE24=Travellin' light
EXTD=
EXTT0=
EXTT1=
EXTT2=
EXTT3=
EXTT4=
EXTT5=
EXTT6=
EXTT7=
EXTT8=
EXTT9=
EXTT10=
EXTT11=
EXTT12=
EXTT13=
EXTT14=
EXTT15=
EXTT16=
EXTT17=
EXTT18=
EXTT19=
EXTT20=
EXTT21=
EXTT22=
EXTT23=
EXTT24=
PLAYORDER=
